<svg xmlns="http://www.w3.org/2000/svg" viewBox="0 0 52.1 37.21"><defs><style>.cls-1{fill:#4153a1;fill-opacity:0;}.cls-2{fill:#fcc010;}.cls-3{fill:#e8451e;}</style></defs><title>Recurso 1</title><g id="Capa_2" data-name="Capa 2"><g id="Capa_1-2" data-name="Capa 1"><g id="Icon_MasterCard" data-name="Icon MasterCard"><path id="Trazado_68" data-name="Trazado 68" class="cls-1" d="M52.1,32.25a5,5,0,0,1-5,5H5a5,5,0,0,1-5-5V5A5,5,0,0,1,5,0H47.14a5,5,0,0,1,5,5Z"/><path id="Trazado_69" data-name="Trazado 69" class="cls-2" d="M45.9,18.61A12.41,12.41,0,1,1,33.49,6.2,12.41,12.41,0,0,1,45.9,18.61Z"/><path id="Trazado_70" data-name="Trazado 70" class="cls-3" d="M23.59,26.05a12.62,12.62,0,0,1-1.46-2.48h6.6a12.13,12.13,0,0,0,.79-2.48H21.34a12.2,12.2,0,0,1-.25-2.48h8.68a12.06,12.06,0,0,0-.25-2.48H21.34a11.75,11.75,0,0,1,.79-2.48h6.61a12.41,12.41,0,0,0-1.46-2.49H23.59a12.65,12.65,0,0,1,1.83-2,12.4,12.4,0,1,0,1.35,17.49l.5-.63Z"/></g></g></g></svg>