<svg xmlns="http://www.w3.org/2000/svg" xmlns:xlink="http://www.w3.org/1999/xlink" viewBox="0 0 52.1 37.21"><defs><style>.cls-1{fill:none;}.cls-2{fill:#4153a1;fill-opacity:0;}.cls-3{clip-path:url(#clip-path);}.cls-4{fill:url(#Degradado_sin_nombre_2);}</style><clipPath id="clip-path"><path class="cls-1" d="M16.39,11.28l-4,10-1.6-8.51a1.77,1.77,0,0,0-1.76-1.49H2.6l-.09.42A16.14,16.14,0,0,1,6.26,13a1.67,1.67,0,0,1,.92,1.29L10.2,26h4l6.17-14.7Zm5.62,0L18.87,26h3.8l3.15-14.7Zm21.81,4L45,20.77H41.82Zm-.55-4a1.72,1.72,0,0,0-1.62,1.07L35.94,26h4l.79-2.2h4.89l.46,2.2h3.52l-3.08-14.7ZM26.85,15.87c0,2.11,1.89,3.29,3.34,4s2,1.19,2,1.83c0,1-1.19,1.42-2.28,1.43A7.92,7.92,0,0,1,26,22.21l-.68,3.22a11.76,11.76,0,0,0,4.23.78c4,0,6.61-2,6.62-5,0-3.88-5.36-4.1-5.32-5.83,0-.53.51-1.1,1.61-1.24a7.25,7.25,0,0,1,3.75.66l.67-3.11A10.12,10.12,0,0,0,33.28,11c-3.76,0-6.4,2-6.43,4.86"/></clipPath><linearGradient id="Degradado_sin_nombre_2" x1="-452.78" y1="-37.23" x2="-452.4" y2="-37.23" gradientTransform="translate(57301.1 4730.42) scale(126.55)" gradientUnits="userSpaceOnUse"><stop offset="0" stop-color="#29265a"/><stop offset="1" stop-color="#0d4f9e"/></linearGradient></defs><title>Recurso 2</title><g id="Capa_2" data-name="Capa 2"><g id="Capa_1-2" data-name="Capa 1"><path id="Trazado_68" data-name="Trazado 68" class="cls-2" d="M52.1,32.25a5,5,0,0,1-5,5H5a5,5,0,0,1-5-5V5A5,5,0,0,1,5,0H47.14a5,5,0,0,1,5,5Z"/><g id="Capa_2-2" data-name="Capa 2"><g id="Layer_1" data-name="Layer 1"><g class="cls-3"><rect class="cls-4" x="2.51" y="11.01" width="47.07" height="15.2"/></g></g></g></g></g></svg>